<svg width="96" height="23" viewBox="0 0 96 23" fill="none" xmlns="http://www.w3.org/2000/svg">
<g filter="url(#filter0_d_2501_9)">
<path d="M18.9498 6.0875C18.8872 5.89061 18.7666 5.71723 18.6038 5.59009C18.4409 5.46294 18.2435 5.38797 18.0373 5.375L14.3248 5.11875L12.9498 1.65C12.8747 1.459 12.744 1.29494 12.5746 1.17905C12.4053 1.06317 12.205 1.00079 11.9998 1C11.7946 1.00079 11.5943 1.06317 11.4249 1.17905C11.2555 1.29494 11.1249 1.459 11.0498 1.65L9.64978 5.1375L5.96228 5.375C5.75634 5.38881 5.55929 5.4641 5.39661 5.59112C5.23393 5.71814 5.11311 5.89106 5.04978 6.0875C4.98474 6.28695 4.98094 6.50131 5.03887 6.70294C5.0968 6.90458 5.21379 7.08423 5.37478 7.21875L8.21228 9.61875L7.36853 12.9375C7.31015 13.162 7.32066 13.3989 7.39868 13.6174C7.4767 13.8358 7.61863 14.0258 7.80603 14.1625C7.98792 14.293 8.20463 14.3664 8.42843 14.373C8.65222 14.3797 8.87292 14.3195 9.06228 14.2L11.9935 12.3438H12.006L15.1623 14.3375C15.3242 14.4427 15.5129 14.4991 15.706 14.5C15.8637 14.4988 16.019 14.4614 16.1599 14.3908C16.3009 14.3201 16.4237 14.2181 16.5191 14.0926C16.6145 13.967 16.6798 13.8213 16.71 13.6666C16.7403 13.5118 16.7346 13.3522 16.6935 13.2L15.7998 9.56875L18.6248 7.21875C18.7858 7.08423 18.9028 6.90458 18.9607 6.70294C19.0186 6.50131 19.0148 6.28695 18.9498 6.0875Z" fill="white"/>
<path d="M36.9498 6.0875C36.8872 5.89061 36.7666 5.71723 36.6038 5.59009C36.4409 5.46294 36.2435 5.38797 36.0373 5.375L32.3248 5.11875L30.9498 1.65C30.8747 1.459 30.744 1.29494 30.5746 1.17905C30.4053 1.06317 30.205 1.00079 29.9998 1C29.7946 1.00079 29.5943 1.06317 29.4249 1.17905C29.2555 1.29494 29.1249 1.459 29.0498 1.65L27.6498 5.1375L23.9623 5.375C23.7563 5.38881 23.5593 5.4641 23.3966 5.59112C23.2339 5.71814 23.1131 5.89106 23.0498 6.0875C22.9847 6.28695 22.9809 6.50131 23.0389 6.70294C23.0968 6.90458 23.2138 7.08423 23.3748 7.21875L26.2123 9.61875L25.3685 12.9375C25.3102 13.162 25.3207 13.3989 25.3987 13.6174C25.4767 13.8358 25.6186 14.0258 25.806 14.1625C25.9879 14.293 26.2046 14.3664 26.4284 14.373C26.6522 14.3797 26.8729 14.3195 27.0623 14.2L29.9935 12.3438H30.006L33.1623 14.3375C33.3242 14.4427 33.5129 14.4991 33.706 14.5C33.8637 14.4988 34.019 14.4614 34.1599 14.3908C34.3009 14.3201 34.4237 14.2181 34.5191 14.0926C34.6145 13.967 34.6798 13.8213 34.71 13.6666C34.7403 13.5118 34.7346 13.3522 34.6935 13.2L33.7998 9.56875L36.6248 7.21875C36.7858 7.08423 36.9028 6.90458 36.9607 6.70294C37.0186 6.50131 37.0148 6.28695 36.9498 6.0875Z" fill="white"/>
<path d="M54.9498 6.0875C54.8872 5.89061 54.7666 5.71723 54.6038 5.59009C54.4409 5.46294 54.2435 5.38797 54.0373 5.375L50.3248 5.11875L48.9498 1.65C48.8747 1.459 48.744 1.29494 48.5746 1.17905C48.4053 1.06317 48.205 1.00079 47.9998 1C47.7946 1.00079 47.5943 1.06317 47.4249 1.17905C47.2555 1.29494 47.1249 1.459 47.0498 1.65L45.6498 5.1375L41.9623 5.375C41.7563 5.38881 41.5593 5.4641 41.3966 5.59112C41.2339 5.71814 41.1131 5.89106 41.0498 6.0875C40.9847 6.28695 40.9809 6.50131 41.0389 6.70294C41.0968 6.90458 41.2138 7.08423 41.3748 7.21875L44.2123 9.61875L43.3685 12.9375C43.3102 13.162 43.3207 13.3989 43.3987 13.6174C43.4767 13.8358 43.6186 14.0258 43.806 14.1625C43.9879 14.293 44.2046 14.3664 44.4284 14.373C44.6522 14.3797 44.8729 14.3195 45.0623 14.2L47.9935 12.3438H48.006L51.1623 14.3375C51.3242 14.4427 51.5129 14.4991 51.706 14.5C51.8637 14.4988 52.019 14.4614 52.1599 14.3908C52.3009 14.3201 52.4237 14.2181 52.5191 14.0926C52.6145 13.967 52.6798 13.8213 52.71 13.6666C52.7403 13.5118 52.7346 13.3522 52.6935 13.2L51.7998 9.56875L54.6248 7.21875C54.7858 7.08423 54.9028 6.90458 54.9607 6.70294C55.0186 6.50131 55.0148 6.28695 54.9498 6.0875Z" fill="white"/>
<path d="M72.9498 6.0875C72.8872 5.89061 72.7666 5.71723 72.6038 5.59009C72.4409 5.46294 72.2435 5.38797 72.0373 5.375L68.3248 5.11875L66.9498 1.65C66.8747 1.459 66.744 1.29494 66.5746 1.17905C66.4053 1.06317 66.205 1.00079 65.9998 1C65.7946 1.00079 65.5943 1.06317 65.4249 1.17905C65.2555 1.29494 65.1249 1.459 65.0498 1.65L63.6498 5.1375L59.9623 5.375C59.7563 5.38881 59.5593 5.4641 59.3966 5.59112C59.2339 5.71814 59.1131 5.89106 59.0498 6.0875C58.9847 6.28695 58.9809 6.50131 59.0389 6.70294C59.0968 6.90458 59.2138 7.08423 59.3748 7.21875L62.2123 9.61875L61.3685 12.9375C61.3102 13.162 61.3207 13.3989 61.3987 13.6174C61.4767 13.8358 61.6186 14.0258 61.806 14.1625C61.9879 14.293 62.2046 14.3664 62.4284 14.373C62.6522 14.3797 62.8729 14.3195 63.0623 14.2L65.9935 12.3438H66.006L69.1623 14.3375C69.3242 14.4427 69.5129 14.4991 69.706 14.5C69.8637 14.4988 70.019 14.4614 70.1599 14.3908C70.3009 14.3201 70.4237 14.2181 70.5191 14.0926C70.6145 13.967 70.6798 13.8213 70.71 13.6666C70.7403 13.5118 70.7346 13.3522 70.6935 13.2L69.7998 9.56875L72.6248 7.21875C72.7858 7.08423 72.9028 6.90458 72.9607 6.70294C73.0186 6.50131 73.0148 6.28695 72.9498 6.0875Z" fill="white"/>
<path d="M90.9498 6.0875C90.8872 5.89061 90.7666 5.71723 90.6038 5.59009C90.4409 5.46294 90.2435 5.38797 90.0373 5.375L86.3248 5.11875L84.9498 1.65C84.8747 1.459 84.744 1.29494 84.5746 1.17905C84.4053 1.06317 84.205 1.00079 83.9998 1C83.7946 1.00079 83.5943 1.06317 83.4249 1.17905C83.2555 1.29494 83.1249 1.459 83.0498 1.65L81.6498 5.1375L77.9623 5.375C77.7563 5.38881 77.5593 5.4641 77.3966 5.59112C77.2339 5.71814 77.1131 5.89106 77.0498 6.0875C76.9847 6.28695 76.9809 6.50131 77.0389 6.70294C77.0968 6.90458 77.2138 7.08423 77.3748 7.21875L80.2123 9.61875L79.3685 12.9375C79.3102 13.162 79.3207 13.3989 79.3987 13.6174C79.4767 13.8358 79.6186 14.0258 79.806 14.1625C79.9879 14.293 80.2046 14.3664 80.4284 14.373C80.6522 14.3797 80.8729 14.3195 81.0623 14.2L83.9935 12.3438H84.006L87.1623 14.3375C87.3242 14.4427 87.5129 14.4991 87.706 14.5C87.8637 14.4988 88.019 14.4614 88.1599 14.3908C88.3009 14.3201 88.4237 14.2181 88.5191 14.0926C88.6145 13.967 88.6798 13.8213 88.71 13.6666C88.7403 13.5118 88.7346 13.3522 88.6935 13.2L87.7998 9.56875L90.6248 7.21875C90.7858 7.08423 90.9028 6.90458 90.9607 6.70294C91.0186 6.50131 91.0148 6.28695 90.9498 6.0875Z" fill="white"/>
</g>
<defs>
<filter id="filter0_d_2501_9" x="0.998047" y="1" width="94.0034" height="21.5" filterUnits="userSpaceOnUse" color-interpolation-filters="sRGB">
<feFlood flood-opacity="0" result="BackgroundImageFix"/>
<feColorMatrix in="SourceAlpha" type="matrix" values="0 0 0 0 0 0 0 0 0 0 0 0 0 0 0 0 0 0 127 0" result="hardAlpha"/>
<feOffset dy="4"/>
<feGaussianBlur stdDeviation="2"/>
<feComposite in2="hardAlpha" operator="out"/>
<feColorMatrix type="matrix" values="0 0 0 0 0 0 0 0 0 0 0 0 0 0 0 0 0 0 0.25 0"/>
<feBlend mode="normal" in2="BackgroundImageFix" result="effect1_dropShadow_2501_9"/>
<feBlend mode="normal" in="SourceGraphic" in2="effect1_dropShadow_2501_9" result="shape"/>
</filter>
</defs>
</svg>
